<?xml version="1.0" encoding="UTF-8" standalone="no"?>
<!-- Created with Inkscape (http://www.inkscape.org/) -->

<svg
   width="283.04538mm"
   height="92.233475mm"
   viewBox="0 0 283.04539 92.233475"
   version="1.1"
   id="svg5"
   inkscape:version="1.1 (c68e22c387, 2021-05-23)"
   sodipodi:docname="DWC_logo_active_vibrant.svg"
   xmlns:inkscape="http://www.inkscape.org/namespaces/inkscape"
   xmlns:sodipodi="http://sodipodi.sourceforge.net/DTD/sodipodi-0.dtd"
   xmlns="http://www.w3.org/2000/svg"
   xmlns:svg="http://www.w3.org/2000/svg">
  <sodipodi:namedview
     id="namedview7"
     pagecolor="#505050"
     bordercolor="#ffffff"
     borderopacity="1"
     inkscape:pageshadow="0"
     inkscape:pageopacity="0"
     inkscape:pagecheckerboard="1"
     inkscape:document-units="mm"
     showgrid="false"
     inkscape:zoom="0.26205012"
     inkscape:cx="307.19314"
     inkscape:cy="-74.413246"
     inkscape:window-width="1920"
     inkscape:window-height="1017"
     inkscape:window-x="-8"
     inkscape:window-y="-8"
     inkscape:window-maximized="1"
     inkscape:current-layer="g6900"
     fit-margin-top="0"
     fit-margin-left="0"
     fit-margin-right="0"
     fit-margin-bottom="0" />
  <defs
     id="defs2">
    <rect
       x="171.34615"
       y="547.76801"
       width="539.67291"
       height="114.6805"
       id="rect51340" />
    <rect
       x="194.28226"
       y="254.99545"
       width="426.34161"
       height="256.34464"
       id="rect3290" />
    <rect
       x="194.28226"
       y="254.99545"
       width="426.34161"
       height="256.34464"
       id="rect1193" />
  </defs>
  <g
     inkscape:label="Layer 1"
     inkscape:groupmode="layer"
     id="layer1"
     transform="translate(80.064252,-119.02589)">
    <g
       id="g6900">
      <path
         style="fill:#be185d;fill-opacity:1;stroke-width:1.16672"
         d="m -32.915277,180.3069 c 1.66144,-2.603 4.83376,-1.50044 8.96168,-0.65685 1.74659,0.35718 3.5072,-1.04891 4.9901,-0.74791 1.33243,0.27076 2.27747,2.74999 2.99736,2.71616 4.09871,-0.19358 7.96059,-1.28572 10.28472,-1.89709 -0.25179,-0.93808 -0.45971,-1.54127 -0.45971,-1.54127 l 2.58081,-0.32412 c -0.17285,-0.98006 -0.24871,-1.57739 -0.24871,-1.57739 0,0 9.44354,-0.62424 16.70761,-2.11995 15.66918,-3.2272 22.15738,0.49936 22.15738,0.49936 l 0.001,0.001 c 0.3347,-0.13891 0.67905,-0.27781 1.0466,-0.41319 2.32761,-0.86217 1.54591,-6.33417 1.78623,-9.04449 0.0922,-0.022 0.17727,-0.0502 0.2659,-0.0737 -0.41317,-1.34989 -0.9999,-3.07783 -1.70107,-4.60156 -0.0873,-0.19137 -0.20064,-0.37702 -0.32457,-0.55887 -4.38339,-1.12589 -13.99493,-3.58421 -15.34017,-3.82806 -1.75011,-0.31617 -2.4198,1.46309 -3.5515,2.41982 -1.40708,1.19009 -2.28215,0.99523 -1.50507,-0.36645 0.77818,-1.36157 1.10837,-1.29622 0,-2.05346 -1.26359,-0.86337 -3.01252,1.38029 -5.92936,0.67438 -2.91686,-0.70586 -2.19696,-3.16766 -0.29282,-3.87117 2.62518,-0.96955 3.98672,-0.98474 8.05394,-0.96955 1.06407,0.004 3.23769,0.13758 5.74152,0.3219 -3.17701,-1.6416 -8.69448,-3.8864 -11.65685,-5.96319 -3.69501,-2.59132 -10.59741,-4.72873 -11.57044,-5.18376 -0.9719,-0.45505 -1.89828,1.70341 -3.84322,2.48163 -1.94494,0.77818 -1.79673,-0.40834 -1.01855,-0.99174 0.77822,-0.58336 0.77589,-1.06405 1.16675,-2.04177 0.19491,-0.48652 -4.0836,-1.6451 -5.83367,-1.5856 -1.75012,0.0595 -5.73682,-2.35328 -1.45842,-2.49796 4.27842,-0.14467 9.82039,0.29166 12.15382,0.68021 2.33347,0.38853 9.55438,2.98333 11.47246,3.69504 1.91814,0.71168 5.24798,2.82464 7.97229,3.79187 5.63766,1.99978 10.35242,3.77673 15.4102,5.79866 1.13757,0.45502 2.99382,-0.30913 6.09265,0.78985 v 0 c 0,0 0.71288,-0.0841 1.69059,0.44221 0.66503,-0.73621 1.12006,-1.77226 0.80388,-2.94017 0,0.001 -10e-4,0.003 -10e-4,0.005 -0.57171,-0.79801 -0.92056,-0.91121 -2.0838,-1.52839 -1.16323,-0.61723 -2.35679,-1.75943 -3.06267,-3.55039 -0.21254,-0.53904 -0.35586,-1.08271 -0.43391,-1.64159 -0.30118,-0.003 -0.60553,-0.0353 -0.90769,-0.13539 -1.59842,-0.52153 -2.46882,-2.24595 -1.94379,-3.85253 0.52386,-1.6066 2.24479,-2.4863 3.84204,-1.96477 0.25884,0.084 0.49004,0.21002 0.70823,0.35233 1.40009,-1.58909 4.01239,-3.00083 8.15543,-1.67543 0.39422,0.0724 0.96607,0.25783 1.80846,0.70354 0.70237,0.37218 2.01028,1.78043 2.19928,3.22368 0.11911,0.90888 0.51218,1.09556 1.14219,1.54475 0.40967,0.29146 1.70809,1.07454 1.9403,1.5529 0.18654,0.38498 -0.55185,0.70472 -0.76886,0.99408 -0.37438,0.49816 -0.28354,0.73501 0.0502,0.9357 0.38144,0.22974 0.10274,0.43743 -0.10487,0.68605 0.27295,0.20286 0.20283,0.36381 0.0309,0.61138 -0.12125,0.17506 -0.21826,0.21695 0.001,0.70117 0.28707,0.6312 -0.54366,1.42345 -1.28339,1.59495 -0.57636,0.13317 -0.96488,0.1808 -1.2822,0.23548 -0.44107,0.0759 -1.55646,0.63468 -2.27866,1.16089 -1.81542,1.32076 -1.07337,4.67157 -1.07337,4.67157 l -0.001,-0.001 c 0.044,0.0923 0.0838,0.18565 0.12389,0.28355 0,0 2.66715,1.31841 3.72536,3.46398 0.71754,0.26238 1.3756,1.45146 1.62875,3.48388 0.35939,2.89699 -1.4619,7.25239 -3.31935,11.25547 -1.6404,3.53402 -2.29959,5.00293 -3.77901,8.14377 v -0.001 c 0,0 4.31104,-3.49552 8.36195,-2.1888 9.335013,3.01367 16.951433,0.77822 16.951433,0.77822 0,0 0.009,0.40349 -0.0176,1.0384 l 1.92862,-0.45505 c 0,0 0.20638,0.54487 0.32412,1.39775 3.10235,-0.60435 6.14283,-1.32423 8.40863,-2.11176 4.98312,-1.73143 8.83918,-2.99502 10.13192,-3.72655 7.889424,-4.46741 12.109494,-5.44861 12.456014,-4.07887 0.45733,1.8026 -3.4442,3.25401 -5.7695,4.89909 -2.325284,1.64507 -1.998624,4.71827 -3.697364,5.72981 -1.15041,0.68486 -3.8199,-0.66387 -5.81268,0 -1.99274,0.66389 -10.8926,5.64815 -15.61198,7.14154 -2.11763,0.67089 -4.35078,0.9544 -6.65741,1.17377 0,0 0,0.001 -0.001,0.001 -0.77122,2.01845 0.40701,6.29687 -2.32064,8.6303 -1.83761,1.57161 -3.05565,1.26826 -4.48726,1.26709 -1.909923,2.1106 -4.557233,3.81755 -6.515013,3.67635 -0.89486,0.94972 -1.76758,1.98697 -2.69631,3.03003 -1.54475,1.7349 -5.29577,1.54591 -8.6385,1.25773 -0.0815,0.09 -0.16316,0.17639 -0.24604,0.26724 -2.19582,2.41742 -5.99234,3.06733 -8.94071,1.99973 -1.99508,1.33593 -3.97618,2.3498 -5.77181,0.50289 -3.34968,-3.44419 -1.85392,-5.58399 -5.22695,-5.38912 -3.373,0.19489 -7.06686,2.52829 -9.20667,-0.77822 -2.13862,-3.30534 -1.36158,-3.74639 -5.25027,-4.10922 -3.88873,-0.36292 -5.05543,-0.94624 -5.05543,-3.47453 0,-0.44101 0.0353,-0.8564 0.0838,-1.25191 -1.02207,-0.57053 -2.12578,-1.6696 -3.48735,-3.92723 -0.38849,-0.64404 -0.74321,-1.32891 -1.07689,-2.02896 -2.41749,-0.4339 -4.1979,-0.90071 -4.57709,-2.85262 -5.09514,-0.25091 -11.54718,-0.022 -12.59606,-0.17153 -1.92157,-0.27297 -5.71815,-0.63007 -9.13433,-1.05824 -8.50545,-1.0664 -7.5149,-3.2995 -6.49053,-4.90495 z"
         id="path92059-6-4-3-6-8-5-2" />
      <path
         style="fill:#ec4899;fill-opacity:1;stroke-width:1.16672"
         d="m 10.361376,165.08 c 1.66144,-2.60301 4.83376,-1.50044 8.96168,-0.65685 1.74659,0.35718 3.5072,-1.04891 4.9901,-0.74791 1.33243,0.27076 2.27747,2.74999 2.99736,2.71616 4.09871,-0.19358 7.96059,-1.28572 10.284717,-1.89709 -0.25179,-0.93808 -0.45971,-1.54127 -0.45971,-1.54127 l 2.58081,-0.32412 c -0.17285,-0.98006 -0.24871,-1.57739 -0.24871,-1.57739 0,0 9.44354,-0.62424 16.70761,-2.11995 15.66918,-3.2272 22.15738,0.49936 22.15738,0.49936 l 0.001,0.001 c 0.3347,-0.13891 0.67905,-0.27781 1.0466,-0.41319 2.32761,-0.86217 1.54591,-6.33417 1.78623,-9.04449 0.0922,-0.022 0.17727,-0.0502 0.2659,-0.0737 -0.41317,-1.34989 -0.9999,-3.07783 -1.70107,-4.60156 -0.0873,-0.19137 -0.20064,-0.37702 -0.32457,-0.55887 -4.38339,-1.12589 -13.99493,-3.58421 -15.34017,-3.82806 -1.75011,-0.31617 -2.4198,1.46309 -3.5515,2.41982 -1.40708,1.19009 -2.28215,0.99523 -1.50507,-0.36645 0.77818,-1.36157 1.10837,-1.29622 0,-2.05346 -1.26359,-0.86337 -3.01252,1.38029 -5.92936,0.67438 -2.91686,-0.70586 -2.19696,-3.16766 -0.29282,-3.87117 2.62518,-0.96955 3.98672,-0.98474 8.05394,-0.96955 1.06407,0.004 3.23769,0.13758 5.74152,0.3219 -3.17701,-1.6416 -8.69448,-3.8864 -11.65685,-5.96319 -3.69501,-2.59132 -10.59741,-4.72873 -11.57044,-5.18376 -0.9719,-0.45505 -1.89828,1.70341 -3.84322,2.48163 -1.94494,0.77818 -1.79673,-0.40834 -1.01855,-0.99174 0.77822,-0.58336 0.77589,-1.06405 1.16675,-2.04177 0.19491,-0.48652 -4.083597,-1.6451 -5.833667,-1.5856 -1.75012,0.0595 -5.73682,-2.35328 -1.45842,-2.49796 4.278417,-0.14467 9.820387,0.29166 12.153817,0.68021 2.33347,0.38853 9.55438,2.98333 11.47246,3.69504 1.91814,0.71168 5.24798,2.82464 7.97229,3.79187 5.63766,1.99978 10.35242,3.77673 15.4102,5.79866 1.13757,0.45502 2.99382,-0.30913 6.09265,0.78985 v 0 c 0,0 0.71288,-0.0841 1.69059,0.44221 0.66503,-0.73621 1.12006,-1.77226 0.80388,-2.94017 0,0.001 -10e-4,0.003 -10e-4,0.005 -0.57171,-0.79801 -0.92056,-0.91121 -2.0838,-1.52839 -1.16323,-0.61723 -2.35679,-1.75943 -3.06267,-3.55039 -0.21254,-0.53904 -0.35586,-1.08271 -0.43391,-1.64159 -0.30118,-0.003 -0.60553,-0.0353 -0.90769,-0.13539 -1.59842,-0.52153 -2.46882,-2.24595 -1.94379,-3.85253 0.52386,-1.6066 2.24479,-2.4863 3.84204,-1.96477 0.25884,0.084 0.49004,0.21002 0.70823,0.35233 1.40009,-1.58909 4.01239,-3.00083 8.15543,-1.67543 0.39422,0.0724 0.96607,0.25783 1.80846,0.70354 0.70237,0.37218 2.01028,1.78043 2.19928,3.22368 0.11911,0.90888 0.51218,1.09556 1.14219,1.54475 0.40967,0.29146 1.70809,1.07454 1.9403,1.5529 0.18654,0.38498 -0.55185,0.70472 -0.76886,0.99408 -0.37438,0.49816 -0.28354,0.73501 0.0502,0.9357 0.38144,0.22974 0.10274,0.43743 -0.10487,0.68605 0.27295,0.20286 0.20283,0.36381 0.0309,0.61138 -0.12125,0.17506 -0.21826,0.21695 0.001,0.70117 0.28707,0.6312 -0.54366,1.42345 -1.28339,1.59495 -0.57636,0.13317 -0.96488,0.1808 -1.2822,0.23548 -0.44107,0.0759 -1.55646,0.63468 -2.27866,1.16089 -1.81542,1.32076 -1.07337,4.67157 -1.07337,4.67157 l -0.001,-0.001 c 0.044,0.0923 0.0838,0.18565 0.12389,0.28354 0,0 2.66715,1.31841 3.72536,3.46398 0.71754,0.26238 1.3756,1.45146 1.62875,3.48388 0.35939,2.89699 -1.4619,7.25239 -3.31935,11.25547 -1.6404,3.53402 -2.29959,5.00293 -3.77901,8.14377 v -0.001 c 0,0 4.31104,-3.49552 8.36195,-2.1888 9.335017,3.01367 16.951437,0.77822 16.951437,0.77822 0,0 0.009,0.40349 -0.0176,1.0384 l 1.92862,-0.45505 c 0,0 0.20638,0.54487 0.32412,1.39775 3.10235,-0.60435 6.14283,-1.32423 8.40863,-2.11176 4.98312,-1.73143 8.83918,-2.99502 10.13192,-3.72655 7.88942,-4.46741 12.10949,-5.44861 12.45601,-4.07887 0.45733,1.8026 -3.4442,3.25401 -5.7695,4.89909 -2.32528,1.64507 -1.99862,4.71827 -3.69736,5.72981 -1.15041,0.68486 -3.8199,-0.66387 -5.81268,0 -1.99274,0.66389 -10.8926,5.64815 -15.61198,7.14154 -2.11763,0.67089 -4.35078,0.9544 -6.65741,1.17377 0,0 0,0.001 -0.001,0.001 -0.77122,2.01845 0.40701,6.29687 -2.32064,8.6303 -1.83761,1.57161 -3.05565,1.26826 -4.48726,1.26709 -1.90993,2.1106 -4.55724,3.81755 -6.515017,3.67635 -0.89486,0.94972 -1.76758,1.98697 -2.69631,3.03003 -1.54475,1.7349 -5.29577,1.54591 -8.6385,1.25773 -0.0815,0.09 -0.16316,0.17639 -0.24604,0.26724 -2.19582,2.41742 -5.99234,3.06733 -8.94071,1.99973 -1.99508,1.33593 -3.97618,2.3498 -5.77181,0.50289 -3.34968,-3.44419 -1.85392,-5.58399 -5.22695,-5.38912 -3.373,0.19489 -7.06686,2.52829 -9.20667,-0.77822 -2.13862,-3.30534 -1.36158,-3.74639 -5.25027,-4.10922 -3.88873,-0.36292 -5.05543,-0.94624 -5.05543,-3.47452 0,-0.44102 0.0353,-0.85641 0.0838,-1.25192 -1.02207,-0.57052 -2.12578,-1.6696 -3.48735,-3.92723 -0.38849,-0.64404 -0.74321,-1.32891 -1.07689,-2.02896 -2.41749,-0.4339 -4.1979,-0.90071 -4.57709,-2.85262 -5.095137,-0.25091 -11.547177,-0.022 -12.596057,-0.17153 -1.92157,-0.27297 -5.71815,-0.63007 -9.13433,-1.05824 -8.50545,-1.0664 -7.5149,-3.2995 -6.49053,-4.90495 z"
         id="path92059-6-4-3-6-8-5-2-2" />
      <g
         id="g73984"
         transform="matrix(1.1958027,0,0,1.1958027,-104.68068,91.202792)"
         style="fill:#ffffff;fill-opacity:1">
        <text
           xml:space="preserve"
           transform="matrix(0.76045151,0,0,0.76045151,-132.48042,-168.98339)"
           id="text3288"
           style="font-style:normal;font-weight:normal;font-size:85.3333px;line-height:1.25;font-family:sans-serif;white-space:pre;shape-inside:url(#rect3290);fill:#ffffff;fill-opacity:1;stroke:none"><tspan
             x="194.2832"
             y="332.84825"
             id="tspan1095"><tspan
               style="font-family:'Lucida Handwriting';-inkscape-font-specification:'Lucida Handwriting'"
               id="tspan1093">DWC</tspan></tspan></text>
      </g>
      <path
         style="fill:#f9a8d4;fill-opacity:1;stroke-width:1.16672"
         d="m 63.763336,165.38213 c 1.66144,-2.60301 4.83376,-1.50044 8.96168,-0.65685 1.74659,0.35718 3.5072,-1.04891 4.9901,-0.74791 1.33243,0.27076 2.27747,2.74999 2.99736,2.71616 4.09871,-0.19358 7.96059,-1.28572 10.284717,-1.89709 -0.25179,-0.93808 -0.45971,-1.54127 -0.45971,-1.54127 l 2.58081,-0.32412 c -0.17285,-0.98006 -0.24871,-1.57739 -0.24871,-1.57739 0,0 9.443537,-0.62424 16.707607,-2.11995 15.66918,-3.2272 22.15738,0.49936 22.15738,0.49936 l 0.001,0.001 c 0.3347,-0.13891 0.67905,-0.27781 1.0466,-0.41319 2.32761,-0.86217 1.54591,-6.33417 1.78623,-9.04449 0.0922,-0.022 0.17727,-0.0502 0.2659,-0.0737 -0.41317,-1.34989 -0.9999,-3.07783 -1.70107,-4.60156 -0.0873,-0.19137 -0.20064,-0.37702 -0.32457,-0.55887 -4.38339,-1.12589 -13.99493,-3.58421 -15.34017,-3.82806 -1.75011,-0.31617 -2.4198,1.46309 -3.5515,2.41982 -1.40708,1.19009 -2.28215,0.99523 -1.50507,-0.36645 0.77818,-1.36157 1.10837,-1.29622 0,-2.05346 -1.26359,-0.86337 -3.01252,1.38029 -5.92936,0.67438 -2.91686,-0.70586 -2.19696,-3.16766 -0.29282,-3.87117 2.62518,-0.96955 3.98672,-0.98474 8.05394,-0.96955 1.06407,0.004 3.23769,0.13758 5.74152,0.3219 -3.17701,-1.6416 -8.69448,-3.8864 -11.65685,-5.96319 -3.69501,-2.59132 -10.597407,-4.72873 -11.570437,-5.18376 -0.9719,-0.45505 -1.89828,1.70341 -3.84322,2.48163 -1.94494,0.77818 -1.79673,-0.40834 -1.01855,-0.99174 0.77822,-0.58336 0.77589,-1.06405 1.16675,-2.04177 0.19491,-0.48652 -4.083597,-1.6451 -5.833667,-1.5856 -1.75012,0.0595 -5.73682,-2.35328 -1.45842,-2.49796 4.278417,-0.14467 9.820387,0.29166 12.153817,0.68021 2.333467,0.38853 9.554377,2.98333 11.472457,3.69504 1.91814,0.71168 5.24798,2.82464 7.97229,3.79187 5.63766,1.99978 10.35242,3.77673 15.4102,5.79866 1.13757,0.45502 2.99382,-0.30913 6.09265,0.78985 v 0 c 0,0 0.71288,-0.0841 1.69059,0.44221 0.66503,-0.73621 1.12006,-1.77226 0.80388,-2.94017 0,10e-4 -0.001,0.003 -0.001,0.005 -0.57171,-0.79801 -0.92056,-0.91121 -2.0838,-1.52839 -1.16323,-0.61723 -2.35679,-1.75943 -3.06267,-3.55039 -0.21254,-0.53904 -0.35586,-1.08271 -0.43391,-1.64159 -0.30118,-0.003 -0.60553,-0.0353 -0.90769,-0.13539 -1.59842,-0.52153 -2.46882,-2.24595 -1.94379,-3.85253 0.52386,-1.6066 2.24479,-2.4863 3.84204,-1.96477 0.25884,0.084 0.49004,0.21002 0.70823,0.35233 1.40009,-1.58909 4.01239,-3.00083 8.15543,-1.67543 0.39422,0.0724 0.96607,0.25783 1.80846,0.70354 0.70237,0.37218 2.01028,1.78043 2.19928,3.22368 0.11911,0.90888 0.51218,1.09556 1.14219,1.54475 0.40967,0.29146 1.70809,1.07454 1.9403,1.5529 0.18654,0.38498 -0.55185,0.70472 -0.76886,0.99408 -0.37438,0.49816 -0.28354,0.73501 0.0502,0.9357 0.38144,0.22974 0.10274,0.43743 -0.10487,0.68605 0.27295,0.20286 0.20283,0.36381 0.0309,0.61138 -0.12125,0.17506 -0.21826,0.21695 0.001,0.70117 0.28707,0.6312 -0.54366,1.42345 -1.28339,1.59495 -0.57636,0.13317 -0.96488,0.1808 -1.2822,0.23548 -0.44107,0.0759 -1.55646,0.63468 -2.27866,1.16089 -1.81542,1.32076 -1.07337,4.67157 -1.07337,4.67157 l -0.001,-0.001 c 0.044,0.0923 0.0838,0.18565 0.12389,0.28354 0,0 2.66715,1.31841 3.72536,3.46398 0.71754,0.26238 1.3756,1.45146 1.62875,3.48388 0.35939,2.89699 -1.4619,7.25239 -3.31935,11.25547 -1.6404,3.53402 -2.29959,5.00293 -3.77901,8.14377 v -0.001 c 0,0 4.31104,-3.49552 8.36195,-2.1888 9.33502,3.01367 16.95144,0.77822 16.95144,0.77822 0,0 0.009,0.40349 -0.0176,1.0384 l 1.92862,-0.45505 c 0,0 0.20638,0.54487 0.32412,1.39775 3.10235,-0.60435 6.14283,-1.32423 8.40863,-2.11176 4.98312,-1.73143 8.83918,-2.99502 10.13192,-3.72655 7.88942,-4.46741 12.10949,-5.44861 12.45601,-4.07887 0.45733,1.8026 -3.4442,3.25401 -5.7695,4.89909 -2.32528,1.64507 -1.99862,4.71827 -3.69736,5.72981 -1.15041,0.68486 -3.8199,-0.66387 -5.81268,0 -1.99274,0.66389 -10.8926,5.64815 -15.61198,7.14154 -2.11763,0.67089 -4.35078,0.9544 -6.65741,1.17377 0,0 0,0.001 -0.001,0.001 -0.77122,2.01845 0.40701,6.29687 -2.32064,8.6303 -1.83761,1.57161 -3.05565,1.26826 -4.48726,1.26709 -1.90993,2.1106 -4.55724,3.81755 -6.51502,3.67635 -0.89486,0.94972 -1.76758,1.98697 -2.69631,3.03003 -1.54475,1.7349 -5.29577,1.54591 -8.6385,1.25773 -0.0815,0.09 -0.16316,0.17639 -0.24604,0.26724 -2.19582,2.41742 -5.99234,3.06733 -8.94071,1.99973 -1.99508,1.33593 -3.97618,2.3498 -5.77181,0.50289 -3.34968,-3.44419 -1.85392,-5.58399 -5.22695,-5.38912 -3.373,0.19489 -7.06686,2.52829 -9.20667,-0.77822 -2.13862,-3.30534 -1.36158,-3.74639 -5.25027,-4.10922 -3.88873,-0.36292 -5.05543,-0.94624 -5.05543,-3.47452 0,-0.44102 0.0353,-0.85641 0.0838,-1.25192 -1.02207,-0.57052 -2.125777,-1.6696 -3.487347,-3.92723 -0.38849,-0.64404 -0.74321,-1.32891 -1.07689,-2.02896 -2.41749,-0.4339 -4.1979,-0.90071 -4.57709,-2.85262 -5.095137,-0.25091 -11.547177,-0.022 -12.596057,-0.17153 -1.92157,-0.27297 -5.71815,-0.63007 -9.13433,-1.05824 -8.50545,-1.0664 -7.5149,-3.2995 -6.49053,-4.90495 z"
         id="path92059-6-4-3-6-8-5-2-2-1" />
    </g>
  </g>
</svg>
